<svg width="20" height="20" viewBox="0 0 20 20" fill="none" xmlns="http://www.w3.org/2000/svg">
<path fill-rule="evenodd" clip-rule="evenodd" d="M4.81694 0.183058C4.69973 0.065848 4.54076 0 4.375 0C4.20924 0 4.05027 0.065848 3.93306 0.183058C3.81585 0.300268 3.75 0.45924 3.75 0.625V1.25H2.5C1.83696 1.25 1.20107 1.51339 0.732233 1.98223C0.263392 2.45107 0 3.08696 0 3.75V5H20V3.75C20 3.08696 19.7366 2.45107 19.2678 1.98223C18.7989 1.51339 18.163 1.25 17.5 1.25H16.25V0.625C16.25 0.45924 16.1842 0.300268 16.0669 0.183058C15.9497 0.065848 15.7908 0 15.625 0C15.4592 0 15.3003 0.065848 15.1831 0.183058C15.0658 0.300268 15 0.45924 15 0.625V1.25H5V0.625C5 0.45924 4.93415 0.300268 4.81694 0.183058ZM20 17.5V6.25H0V17.5C0 18.163 0.263392 18.7989 0.732233 19.2678C1.20107 19.7366 1.83696 20 2.5 20H17.5C18.163 20 18.7989 19.7366 19.2678 19.2678C19.7366 18.7989 20 18.163 20 17.5ZM10 10.2013C10 10.2013 9.93984 10.2104 9.90419 10.2252C9.83178 10.255 9.75001 10.3535 9.75001 10.3535L8.17701 11.927C8.13007 11.9739 8.0664 12.0003 8.00001 12.0003C7.93362 12.0003 7.86995 11.9739 7.82301 11.927C7.77607 11.8801 7.74969 11.8164 7.74969 11.75C7.74969 11.6836 7.77607 11.6199 7.82301 11.573L9.82301 9.573C9.84623 9.54972 9.87382 9.53125 9.90419 9.51864C9.93457 9.50604 9.96713 9.49955 10 9.49955C10.0329 9.49955 10.0655 9.50604 10.0958 9.51864C10.1262 9.53125 10.1538 9.54972 10.177 9.573L12.177 11.573C12.224 11.6199 12.2503 11.6836 12.2503 11.75C12.2503 11.8164 12.224 11.8801 12.177 11.927C12.1301 11.9739 12.0664 12.0003 12 12.0003C11.9336 12.0003 11.87 11.9739 11.823 11.927L10.25 10.3535C10.25 10.3535 10.1682 10.255 10.0958 10.2252C10.0602 10.2104 10 10.2013 10 10.2013Z" fill="#DADDE7"/>
</svg>
