<svg width="15" height="20" viewBox="0 0 15 20" fill="none" xmlns="http://www.w3.org/2000/svg">
<path fill-rule="evenodd" clip-rule="evenodd" d="M1.63617e-07 19.3746V2.49994C1.63617e-07 1.83692 0.257539 1.20105 0.715961 0.732216C1.17438 0.263386 1.79614 0 2.44444 0L12.2222 0C12.8705 0 13.4923 0.263386 13.9507 0.732216C14.4091 1.20105 14.6667 1.83692 14.6667 2.49994V19.3746C14.6667 19.4831 14.6392 19.5898 14.5867 19.6841C14.5342 19.7784 14.4586 19.8572 14.3674 19.9125C14.2761 19.9679 14.1723 19.998 14.0662 19.9999C13.9601 20.0018 13.8553 19.9754 13.7622 19.9233L7.33333 16.3359L0.904445 19.9233C0.811347 19.9754 0.70659 20.0018 0.600484 19.9999C0.494378 19.998 0.390582 19.9679 0.299312 19.9125C0.208043 19.8572 0.132446 19.7784 0.0799634 19.6841C0.0274811 19.5898 -7.74813e-05 19.4831 1.63617e-07 19.3746ZM7.52889 5.12488C7.51102 5.0874 7.48321 5.05581 7.44864 5.03371C7.41406 5.0116 7.37411 4.99989 7.33333 4.99989C7.29256 4.99989 7.25261 5.0116 7.21803 5.03371C7.18345 5.05581 7.15565 5.0874 7.13778 5.12488L6.36289 6.7311C6.34738 6.76359 6.32436 6.79172 6.29582 6.81307C6.26728 6.83441 6.23409 6.84832 6.19911 6.85359L4.46356 7.11109C4.4236 7.11729 4.38613 7.13475 4.35533 7.16151C4.32453 7.18827 4.30163 7.22327 4.2892 7.26259C4.27676 7.30192 4.27528 7.34401 4.28492 7.38414C4.29456 7.42428 4.31494 7.46087 4.34378 7.48983L5.59778 8.74105C5.64911 8.7923 5.67233 8.86605 5.66011 8.93855L5.36556 10.706C5.35891 10.7468 5.36353 10.7887 5.37888 10.827C5.39424 10.8653 5.41973 10.8984 5.45248 10.9227C5.48524 10.947 5.52397 10.9614 5.56431 10.9644C5.60466 10.9675 5.64503 10.9589 5.68089 10.9397L7.23311 10.1048C7.26423 10.0881 7.29883 10.0794 7.33394 10.0794C7.36906 10.0794 7.40366 10.0881 7.43478 10.1048L8.987 10.9397C9.02282 10.9586 9.06304 10.9668 9.10319 10.9637C9.14334 10.9605 9.18184 10.946 9.2144 10.9217C9.24696 10.8975 9.2723 10.8645 9.28761 10.8264C9.30292 10.7883 9.30759 10.7466 9.30111 10.706L9.00533 8.9373C8.99909 8.90178 9.0014 8.86524 9.01204 8.83083C9.02269 8.79642 9.04136 8.76518 9.06644 8.7398L10.3229 7.48858C10.3517 7.45962 10.3721 7.42303 10.3817 7.38289C10.3914 7.34276 10.3899 7.30067 10.3775 7.26134C10.365 7.22202 10.3421 7.18702 10.3113 7.16026C10.2805 7.1335 10.2431 7.11604 10.2031 7.10984L8.46756 6.85234C8.43258 6.84707 8.39938 6.83316 8.37085 6.81182C8.34231 6.79047 8.31929 6.76234 8.30378 6.72985L7.52889 5.12488Z" fill="#DADDE7"/>
</svg>
