<svg width="165" height="46" viewBox="0 0 165 46" fill="none" xmlns="http://www.w3.org/2000/svg">
<path d="M29 17.5L27.5 16L19 26L13.5 21L12.0582 22.5237L19.1134 29.3366L29 17.5Z" fill="#DADDE7"/>
<path d="M0 0H18.24C22.976 0 27.1573 0.959997 30.784 2.88C34.4107 4.75733 37.2267 7.40267 39.232 10.816C41.2373 14.1867 42.24 18.048 42.24 22.4C42.24 26.752 41.2373 30.6347 39.232 34.048C37.2267 37.4187 34.4107 40.064 30.784 41.984C27.1573 43.8614 22.976 44.8 18.24 44.8H0V0ZM17.984 40.704C21.9093 40.704 25.344 39.936 28.288 38.4C31.232 36.8214 33.5147 34.6667 35.136 31.936C36.7573 29.1627 37.568 25.984 37.568 22.4C37.568 18.816 36.7573 15.6587 35.136 12.928C33.5147 10.1547 31.232 8 28.288 6.464C25.344 4.88533 21.9093 4.096 17.984 4.096H4.736V40.704H17.984Z" fill="#DADDE7"/>
<path d="M65.675 45.12C62.4323 45.12 59.5097 44.3947 56.907 42.944C54.3043 41.4507 52.2563 39.4027 50.763 36.8C49.2697 34.1974 48.523 31.2534 48.523 27.968C48.523 24.6827 49.2697 21.7387 50.763 19.136C52.2563 16.5333 54.3043 14.5067 56.907 13.056C59.5097 11.6053 62.4323 10.88 65.675 10.88C68.9177 10.88 71.8403 11.6053 74.443 13.056C77.0457 14.5067 79.0723 16.5333 80.523 19.136C82.0163 21.7387 82.763 24.6827 82.763 27.968C82.763 31.2534 82.0163 34.1974 80.523 36.8C79.0723 39.4027 77.0457 41.4507 74.443 42.944C71.8403 44.3947 68.9177 45.12 65.675 45.12ZM65.675 41.088C68.0643 41.088 70.1977 40.5547 72.075 39.488C73.995 38.3787 75.4883 36.8214 76.555 34.816C77.6217 32.8107 78.155 30.528 78.155 27.968C78.155 25.408 77.6217 23.1253 76.555 21.12C75.4883 19.1147 73.995 17.5787 72.075 16.512C70.1977 15.4027 68.0643 14.848 65.675 14.848C63.2857 14.848 61.131 15.4027 59.211 16.512C57.3337 17.5787 55.8403 19.1147 54.731 21.12C53.6643 23.1253 53.131 25.408 53.131 27.968C53.131 30.528 53.6643 32.8107 54.731 34.816C55.8403 36.8214 57.3337 38.3787 59.211 39.488C61.131 40.5547 63.2857 41.088 65.675 41.088Z" fill="#DADDE7"/>
<path d="M109.192 10.88C113.416 10.88 116.765 12.1173 119.24 14.592C121.757 17.024 123.016 20.5867 123.016 25.28V44.8H118.472V25.728C118.472 22.2293 117.597 19.5627 115.848 17.728C114.099 15.8933 111.603 14.976 108.36 14.976C104.733 14.976 101.853 16.064 99.72 18.24C97.6293 20.3733 96.584 23.3387 96.584 27.136V44.8H92.04V11.136H96.392V17.344C97.6293 15.296 99.336 13.7173 101.512 12.608C103.731 11.456 106.291 10.88 109.192 10.88Z" fill="#DADDE7"/>
<path d="M164.79 29.376H136.63C136.885 32.8747 138.229 35.712 140.661 37.888C143.094 40.0214 146.165 41.088 149.878 41.088C151.968 41.088 157.5 41 157.5 41L164.79 41.088V45.12H158.5C158.5 45.12 152.438 45.12 149.749 45.12C146.294 45.12 143.221 44.3947 140.533 42.944C137.888 41.4507 135.819 39.4027 134.326 36.8C132.832 34.1974 132.085 31.2534 132.085 27.968C132.085 24.6827 132.789 21.7387 134.197 19.136C135.648 16.5333 137.611 14.5067 140.085 13.056C142.603 11.6053 145.419 10.88 148.533 10.88C151.648 10.88 154.443 11.6053 156.917 13.056C159.392 14.5067 161.333 16.5333 162.742 19.136C164.15 21.696 164.854 24.64 164.854 27.968L164.79 29.376ZM148.533 14.784C145.291 14.784 142.56 15.8293 140.342 17.92C138.166 19.968 136.928 22.656 136.63 25.984H160.501C160.203 22.656 158.944 19.968 156.725 17.92C154.549 15.8293 151.819 14.784 148.533 14.784Z" fill="#DADDE7"/>
</svg>
