<svg width="25" height="28" viewBox="0 0 25 28" fill="none" xmlns="http://www.w3.org/2000/svg">
<path d="M16.6667 0H8.33333C6.80139 0 5.55556 1.24583 5.55556 2.77778V4.16667H0V6.94444H2.77778V25C2.77778 26.5319 4.02361 27.7778 5.55556 27.7778H19.4444C20.9764 27.7778 22.2222 26.5319 22.2222 25V6.94444H25V4.16667H19.4444V2.77778C19.4444 1.24583 18.1986 0 16.6667 0ZM8.33333 2.77778H16.6667V4.16667H8.33333V2.77778ZM19.4444 25H5.55556V6.94444H19.4444V25Z" fill="#E28181"/>
<path d="M8.33333 9.72222H11.1111V22.2222H8.33333V9.72222Z" fill="#E28181"/>
<path d="M13.8889 9.72222H16.6667V22.2222H13.8889V9.72222Z" fill="#E28181"/>
</svg>
